<svg width="26" height="26" fill="none" xmlns="http://www.w3.org/2000/svg"><g clip-path="url(#a)"><path d="M26 13c0-7.18-5.82-13-13-13S0 5.82 0 13s5.82 13 13 13 13-5.82 13-13Z" fill="#313131"/><path fill-rule="evenodd" clip-rule="evenodd" d="M14.43 14.968a3.751 3.751 0 1 0-2.86 0 8.614 8.614 0 0 0-3.762 1.613l1.382 1.838A6.317 6.317 0 0 1 13 17.15c1.431 0 2.748.472 3.81 1.27l1.381-1.84a8.614 8.614 0 0 0-3.761-1.612Z" fill="#fff"/></g><defs><clipPath id="a"><path fill="#fff" d="M0 0h26v26H0z"/></clipPath></defs></svg>